<?xml version="1.0" standalone="no"?>
<!DOCTYPE svg PUBLIC "-//W3C//DTD SVG 20010904//EN"
 "http://www.w3.org/TR/2001/REC-SVG-20010904/DTD/svg10.dtd">
<svg version="1.0" xmlns="http://www.w3.org/2000/svg"
 width="700.000000pt" height="700.000000pt" viewBox="0 0 700.000000 700.000000"
 preserveAspectRatio="xMidYMid meet">
<metadata>
Created by potrace 1.11, written by Peter Selinger 2001-2013
</metadata>
<g transform="translate(0.000000,700.000000) scale(0.100000,-0.100000)"
fill="#000000" stroke="none">
<path d="M5380 5195 c-74 -21 -127 -54 -183 -114 -74 -79 -91 -126 -92 -251 0
-93 3 -111 27 -162 112 -240 425 -297 612 -111 83 83 124 194 112 307 -8 80
-62 191 -117 241 -96 86 -241 123 -359 90z"/>
<path d="M2837 4809 c-8 -13 -225 -388 -483 -834 -257 -445 -642 -1114 -857
-1485 -214 -371 -391 -680 -394 -687 -4 -11 433 -13 2396 -13 1321 0 2401 3
2401 8 -1 13 -1057 1836 -1066 1839 -5 1 -153 -247 -329 -552 -176 -305 -323
-551 -326 -547 -4 4 -81 135 -171 292 -378 654 -1135 1966 -1145 1984 -10 18
-11 18 -26 -5z m198 -2041 c-2 -7 -31 -103 -65 -213 -34 -110 -66 -215 -71
-232 -7 -22 -17 -33 -30 -33 -10 0 -19 3 -19 6 0 9 141 467 147 477 7 12 43 8
38 -5z m-267 -110 c-2 -18 -26 -30 -145 -72 -78 -28 -144 -54 -147 -57 -3 -3
57 -27 133 -54 163 -56 164 -56 159 -82 -3 -18 -16 -15 -186 46 -170 62 -182
68 -180 90 3 20 23 31 173 86 94 35 176 63 183 64 8 1 12 -7 10 -21z m533 -42
c155 -56 174 -66 177 -87 3 -22 -5 -27 -85 -56 -48 -17 -132 -47 -185 -67
l-98 -35 0 23 c0 21 15 29 151 76 82 29 147 56 142 61 -4 4 -71 30 -148 57
-116 41 -141 53 -143 71 -2 11 1 21 5 21 5 0 88 -29 184 -64z m1637 -243 c-37
-133 -85 -273 -94 -273 -9 0 -7 16 6 58 9 31 29 96 44 145 15 48 32 87 38 87
6 0 8 -8 6 -17z m279 -129 c4 -11 -216 -99 -225 -90 -11 12 16 27 93 53 47 15
85 30 85 34 0 4 -40 21 -90 39 -49 18 -90 38 -90 45 0 15 221 -64 227 -81z
m-439 74 c-2 -6 -43 -25 -91 -41 -48 -17 -84 -34 -80 -37 5 -4 45 -20 91 -36
45 -16 82 -34 82 -41 0 -17 -214 60 -218 78 -2 10 29 26 95 51 107 40 127 44
121 26z"/>
</g>
</svg>
